<svg xmlns="http://www.w3.org/2000/svg" viewBox="0 0 2935.61 3333.33" shape-rendering="geometricPrecision" text-rendering="geometricPrecision" image-rendering="optimizeQuality" fill-rule="evenodd" clip-rule="evenodd"><path d="M1467.8 0c153.28 0 283.52 197.68 370.22 517.29 30.07 110.89 55.83 237.53 76.28 376.2 130.31-51.63 252.86-92.64 363.9-122.03 319.93-84.67 556.14-70.65 632.8 62.12 76.55 132.6-29.5 344.13-262.83 578.9-80.97 81.46-177.78 167.09-287.7 254.16 44 34.86 85.93 69.51 125.57 103.74-35.96 25.22-65.66 58.72-86.37 97.72-45.59-39.36-94.35-79.29-146-119.54-90.77 67.53-188.81 135.41-292.91 202.37-5.96 123.84-15.74 242.9-28.89 355.48 136.57 55.33 264.57 98.81 379.56 129.24 260.56 68.96 443.37 74.13 486.64-.8 23.03-39.91 6.81-102.54-41.9-181.15 39.43-17.1 74.15-43.07 101.6-75.41 78.28 128.37 100.32 239.85 53.23 321.45-76.65 132.76-312.87 146.79-632.77 62.12-111.03-29.39-233.57-70.41-363.93-122.07-20.44 138.69-46.2 265.34-76.28 376.24-86.7 319.61-216.94 517.29-370.22 517.29-153.28 0-283.53-197.68-370.22-517.29-30.09-110.9-55.85-237.56-76.29-376.24-47.13 18.69-93.24 35.97-138.16 51.82-3.5-45.24-17.85-87.44-40.41-124.03 52.08-18.4 105.84-38.81 161.01-61.18-13.15-112.58-22.93-231.66-28.89-355.5-104.11-66.96-202.17-134.84-292.95-202.38-116.31 90.67-218.06 179.85-301.98 264.27-189.95 191.14-285.74 346.91-242.38 422.05 24.07 41.69 91.33 58.57 191.12 53.49-.74 8.27-1.15 16.63-1.15 25.09 0 35.49 6.66 69.42 18.78 100.63-159 6.73-272.79-29.65-321.68-114.31-76.55-132.61 29.5-344.13 262.83-578.91 80.98-81.47 177.81-167.1 287.75-254.17-109.94-87.07-206.76-172.7-287.75-254.19C54.1 1177.7-51.95 966.17 24.6 833.57c76.67-132.77 312.87-146.79 632.77-62.12 111.07 29.39 233.62 70.4 363.93 122.03 7.39-50.12 15.47-98.69 24.2-145.49 37.58 18.93 80.04 29.61 124.99 29.61l2.48-.03c-9.9 53.54-18.95 109.49-27.04 167.55 103.94 44.85 211.78 95.84 321.85 152.52 110.07-56.68 217.91-107.66 321.85-152.52-20.36-146.1-46.71-278.79-77.85-393.6-70.49-259.94-157.4-420.72-244-420.72-48.05 0-96.18 49.52-141.57 137.97-34.92-23.63-75.49-39.53-119.28-45.26C1280.84 81.15 1369.59 0 1467.79 0zm1157.7 1810.56c99.6 0 180.35 80.74 180.35 180.35 0 99.6-80.74 180.34-180.35 180.34-99.6 0-180.34-80.74-180.34-180.34 0-99.6 80.74-180.35 180.34-180.35zM606.32 2327.25c99.6 0 180.35 80.74 180.35 180.34 0 99.6-80.74 180.35-180.35 180.35-99.6 0-180.34-80.74-180.34-180.35 0-99.6 80.74-180.34 180.34-180.34zm564.17-2008.22c99.6 0 180.34 80.74 180.34 180.35 0 99.6-80.74 180.34-180.34 180.34-99.6 0-180.35-80.74-180.35-180.34 0-99.6 80.74-180.35 180.35-180.35zM1467.8 1427c132.36 0 239.66 107.3 239.66 239.67 0 132.36-107.3 239.66-239.66 239.66-132.37 0-239.67-107.3-239.67-239.66 0-132.37 107.3-239.67 239.67-239.67zm-785.92 157.8c90.78-67.54 188.85-135.42 292.96-202.4 5.96-123.83 15.74-242.87 28.87-355.45-136.6-55.36-264.6-98.85-379.54-129.28-260.56-68.95-443.37-74.14-486.64.81-43.36 75.13 52.43 230.91 242.38 422.04 83.93 84.44 185.67 173.62 301.96 264.29zm1107.78 803.35c-103.91-44.87-211.77-95.9-321.85-152.59-110.09 56.7-217.94 107.71-321.85 152.59 20.35 146.12 46.69 278.83 77.84 393.66 70.5 259.93 157.41 420.7 244.01 420.7s173.51-160.78 244-420.7c31.15-114.83 57.49-247.54 77.85-393.66zm-462.53-227.5a5863.366 5863.366 0 01-108.1-60.92l-.07.04c-1.19-.67-2.34-1.35-3.47-2.08a5974.554 5974.554 0 01-104.9-62.07c4.83 74.78 11.11 147.46 18.7 217.61 64.58-28.48 130.66-59.39 197.84-92.58zm281.59-987.99c36.18 19.89 72.49 40.36 108.93 61.39 36.32 20.97 72.14 42.15 107.36 63.46-4.83-74.68-11.1-147.29-18.69-217.37-64.49 28.48-130.5 59.35-197.59 92.51zm352.04 209.6c104.11 66.99 202.18 134.9 293 202.49 116.29-90.65 218.01-179.82 301.93-264.24 189.95-191.12 285.74-346.91 242.38-422.04-43.28-74.95-226.08-69.76-486.66-.8-114.94 30.42-242.94 73.91-379.54 129.28 13.15 112.54 22.92 231.54 28.89 355.31zm184.44 284.45c-56.92-41.62-116.67-83.37-178.96-124.92.86 41.22 1.28 82.87 1.28 124.87 0 42.05-.43 83.72-1.28 124.98 62.28-41.55 122.04-83.3 178.96-124.94zm-312.25-211.06a5874.281 5874.281 0 00-180.6-108.61l-.11-.06c-61.92-35.76-123.48-69.83-184.43-102.15-60.95 32.32-122.53 66.4-184.46 102.16l-.06-.12-.2.12c-61.82 35.69-122.03 71.93-180.41 108.51-2.48 69.05-3.78 139.53-3.78 211.15 0 71.63 1.28 142.11 3.77 211.14a5803.613 5803.613 0 00178.09 107.17c.19.11 1.65.78 1.57.91l.8.47a5837.124 5837.124 0 00184.68 102.24c60.37-32 121.36-65.72 182.67-101.08 1.07-.67 2.17-1.31 3.29-1.93l.04-.02c61.38-35.46 121.16-71.45 179.14-107.77 2.48-69.03 3.78-139.51 3.78-211.14 0-71.56-1.28-142-3.77-211.01zm-506.05-282.99c-67.11-33.16-133.12-64.04-197.61-92.51-7.6 70.14-13.87 142.79-18.7 217.53 35.25-21.33 71.07-42.51 107.41-63.49l-.06-.12c36.43-21.04 72.76-41.5 108.96-61.41zm-536.55 494c56.93 41.67 116.71 83.43 179.02 124.98-.86-41.26-1.3-82.93-1.3-124.98s.44-83.74 1.3-125c-62.31 41.58-122.09 83.34-179.02 125zm818.12 493.99c67.18 33.19 133.26 64.09 197.82 92.58 7.6-70.15 13.87-142.81 18.72-217.59-35.3 21.37-71.2 42.59-107.61 63.62l-1.93 1.11c-35.79 20.63-71.46 40.74-107 60.28z" fill-rule="nonzero"/></svg>